<svg xmlns="http://www.w3.org/2000/svg" width="1200" height="1120" viewBox="0 0 1200 1120"><style>.p{fill:#fff;stroke:#333;stroke-width:2}.g{fill:#e8e8e8;stroke:#777}.d{fill:#ccc;stroke:#555}.t{font:14px Arial;fill:#222}.h{font:bold 19px Arial;fill:#111}</style><text x="30" y="30" class="h">Admin units list - full-page responsive wireframe</text><g transform="translate(30 55)"><rect width="350" height="1050" class="p"/><text x="15" y="25" class="h">Desktop</text><rect x="15" y="45" width="320" height="40" class="d"/><text x="30" y="70" class="t">Admin nav</text><text x="15" y="130" class="h">Units</text><rect x="15" y="150" width="100" height="100" class="g"/><rect x="125" y="150" width="100" height="100" class="g"/><rect x="235" y="150" width="100" height="100" class="g"/><text x="42" y="205" class="t">Unit 1</text><text x="152" y="205" class="t">Unit 2</text><text x="262" y="205" class="t">Unit 3</text><rect x="15" y="290" width="320" height="120" class="d"/><text x="120" y="355" class="t">Footer</text></g><g transform="translate(425 55)"><rect width="350" height="1050" class="p"/><text x="15" y="25" class="h">Tablet</text><rect x="15" y="45" width="320" height="40" class="d"/><text x="30" y="70" class="t">Admin menu</text><rect x="15" y="115" width="150" height="100" class="g"/><rect x="180" y="115" width="150" height="100" class="g"/><rect x="15" y="235" width="150" height="100" class="g"/><rect x="15" y="410" width="320" height="120" class="d"/><text x="120" y="475" class="t">Footer</text></g><g transform="translate(820 55)"><rect width="350" height="1050" class="p"/><text x="15" y="25" class="h">Mobile</text><rect x="15" y="45" width="320" height="40" class="d"/><text x="30" y="70" class="t">Admin menu</text><rect x="15" y="115" width="320" height="100" class="g"/><text x="125" y="170" class="t">Unit card</text><rect x="15" y="235" width="320" height="100" class="g"/><text x="125" y="290" class="t">Unit card</text><rect x="15" y="410" width="320" height="120" class="d"/><text x="120" y="475" class="t">Footer</text></g></svg>